<mxfile host="app.diagrams.net" modified="2023-03-13T02:15:33.563Z" agent="5.0 (Windows NT 10.0; Win64; x64) AppleWebKit/537.36 (KHTML, like Gecko) Chrome/110.0.0.0 Safari/537.36 Edg/110.0.1587.63" etag="I53fsx9SmM1_wYvOG2N-" version="20.8.23" type="github">
  <diagram name="第 1 页" id="BoYThL9qZdxGfDXjNJYI">
    <mxGraphModel dx="1514" dy="1937" grid="1" gridSize="10" guides="1" tooltips="1" connect="1" arrows="1" fold="1" page="1" pageScale="1" pageWidth="850" pageHeight="1100" math="0" shadow="0">
      <root>
        <mxCell id="0" />
        <mxCell id="1" parent="0" />
        <mxCell id="eA6l3aObdcysx2nHsOpe-1" value="KernelObj" style="swimlane;fontStyle=1;align=center;verticalAlign=top;childLayout=stackLayout;horizontal=1;startSize=26;horizontalStack=0;resizeParent=1;resizeParentMax=0;resizeLast=0;collapsible=1;marginBottom=0;" vertex="1" parent="1">
          <mxGeometry x="130" y="130" width="210" height="114" as="geometry">
            <mxRectangle x="130" y="130" width="100" height="30" as="alternateBounds" />
          </mxGeometry>
        </mxCell>
        <mxCell id="eA6l3aObdcysx2nHsOpe-2" value="- parent_: ExecutableObj&#xa;- func_name_: string&#xa;- KernelSignature: kern_signature_" style="text;strokeColor=none;fillColor=none;align=left;verticalAlign=top;spacingLeft=4;spacingRight=4;overflow=hidden;rotatable=0;points=[[0,0.5],[1,0.5]];portConstraint=eastwest;" vertex="1" parent="eA6l3aObdcysx2nHsOpe-1">
          <mxGeometry y="26" width="210" height="54" as="geometry" />
        </mxCell>
        <mxCell id="eA6l3aObdcysx2nHsOpe-3" value="" style="line;strokeWidth=1;fillColor=none;align=left;verticalAlign=middle;spacingTop=-1;spacingLeft=3;spacingRight=3;rotatable=0;labelPosition=right;points=[];portConstraint=eastwest;strokeColor=inherit;" vertex="1" parent="eA6l3aObdcysx2nHsOpe-1">
          <mxGeometry y="80" width="210" height="8" as="geometry" />
        </mxCell>
        <mxCell id="eA6l3aObdcysx2nHsOpe-4" value="+ getSignatureString(): string" style="text;strokeColor=none;fillColor=none;align=left;verticalAlign=top;spacingLeft=4;spacingRight=4;overflow=hidden;rotatable=0;points=[[0,0.5],[1,0.5]];portConstraint=eastwest;" vertex="1" parent="eA6l3aObdcysx2nHsOpe-1">
          <mxGeometry y="88" width="210" height="26" as="geometry" />
        </mxCell>
        <mxCell id="eA6l3aObdcysx2nHsOpe-5" value="KernelSignature" style="swimlane;fontStyle=1;align=center;verticalAlign=top;childLayout=stackLayout;horizontal=1;startSize=26;horizontalStack=0;resizeParent=1;resizeParentMax=0;resizeLast=0;collapsible=1;marginBottom=0;" vertex="1" parent="1">
          <mxGeometry x="130" y="300" width="300" height="230" as="geometry" />
        </mxCell>
        <mxCell id="eA6l3aObdcysx2nHsOpe-6" value="- params_: vector&lt;KernelParameterDescriptor&gt;&#xa;- attributes_: string&#xa;- params_size_: uint32_t&#xa;- num_memories_: uint32_t&#xa;- version_: uint32_t" style="text;strokeColor=none;fillColor=none;align=left;verticalAlign=top;spacingLeft=4;spacingRight=4;overflow=hidden;rotatable=0;points=[[0,0.5],[1,0.5]];portConstraint=eastwest;" vertex="1" parent="eA6l3aObdcysx2nHsOpe-5">
          <mxGeometry y="26" width="300" height="84" as="geometry" />
        </mxCell>
        <mxCell id="eA6l3aObdcysx2nHsOpe-7" value="" style="line;strokeWidth=1;fillColor=none;align=left;verticalAlign=middle;spacingTop=-1;spacingLeft=3;spacingRight=3;rotatable=0;labelPosition=right;points=[];portConstraint=eastwest;strokeColor=inherit;" vertex="1" parent="eA6l3aObdcysx2nHsOpe-5">
          <mxGeometry y="110" width="300" height="8" as="geometry" />
        </mxCell>
        <mxCell id="eA6l3aObdcysx2nHsOpe-8" value="+ numParameters(): uint32_t&#xa;+ params(): vector&lt;KernelParameterDescriptor&gt;&amp;&#xa;+ paramsSize(): uint32_t&#xa;+ numMemories(): uint32_t&#xa;+ version(): uint32_t&#xa;+ attributes(): string&amp;&#xa;+ at(size_t): KernelParameterDescriptor&amp;&#xa;" style="text;strokeColor=none;fillColor=none;align=left;verticalAlign=top;spacingLeft=4;spacingRight=4;overflow=hidden;rotatable=0;points=[[0,0.5],[1,0.5]];portConstraint=eastwest;" vertex="1" parent="eA6l3aObdcysx2nHsOpe-5">
          <mxGeometry y="118" width="300" height="112" as="geometry" />
        </mxCell>
        <mxCell id="eA6l3aObdcysx2nHsOpe-9" value="ExecutableObj" style="swimlane;fontStyle=1;align=center;verticalAlign=top;childLayout=stackLayout;horizontal=1;startSize=26;horizontalStack=0;resizeParent=1;resizeParentMax=0;resizeLast=0;collapsible=1;marginBottom=0;" vertex="1" parent="1">
          <mxGeometry x="130" y="-250" width="300" height="340" as="geometry" />
        </mxCell>
        <mxCell id="eA6l3aObdcysx2nHsOpe-10" value="- arch_: string&#xa;- vendor_: string&#xa;- os_: string&#xa;- processor_: string&#xa;- rodata_offset_: uint32_t&#xa;- elf_image_: unique_ptr&lt;ElfImage&gt;&#xa;- elf_buffer_: unique_ptr&lt;char&gt;&#xa;- text_section_: ElfSection*&#xa;- segments_: vector&lt;ElfSegment*&gt;&#xa;- data_sections_: vector&lt;ElfSection*&gt;&#xa;- reloc_sections_: vector&lt;ElfRelocationSection*&gt;&#xa;- symbols_: vector&lt;unique_ptr&lt;Symbol&gt;&gt;&#xa;- kernel_signature_map_: KernelSignatureMap&#xa;" style="text;strokeColor=none;fillColor=none;align=left;verticalAlign=top;spacingLeft=4;spacingRight=4;overflow=hidden;rotatable=0;points=[[0,0.5],[1,0.5]];portConstraint=eastwest;" vertex="1" parent="eA6l3aObdcysx2nHsOpe-9">
          <mxGeometry y="26" width="300" height="194" as="geometry" />
        </mxCell>
        <mxCell id="eA6l3aObdcysx2nHsOpe-11" value="" style="line;strokeWidth=1;fillColor=none;align=left;verticalAlign=middle;spacingTop=-1;spacingLeft=3;spacingRight=3;rotatable=0;labelPosition=right;points=[];portConstraint=eastwest;strokeColor=inherit;" vertex="1" parent="eA6l3aObdcysx2nHsOpe-9">
          <mxGeometry y="220" width="300" height="8" as="geometry" />
        </mxCell>
        <mxCell id="eA6l3aObdcysx2nHsOpe-12" value="+ initFromFile(string): int&#xa;+ getKernelNames(): vector&lt;string&gt;&#xa;+ getKernelObj(string): unique_ptr&lt;KernelObj&gt;&#xa;+ getProcessorName(): string&#xa;- pullElf()： int&#xa;- procMetadata(): int&#xa;- getMetadataFromNote(): unique_ptr&lt;MetadataNode&gt;&#xa;&#xa;" style="text;strokeColor=none;fillColor=none;align=left;verticalAlign=top;spacingLeft=4;spacingRight=4;overflow=hidden;rotatable=0;points=[[0,0.5],[1,0.5]];portConstraint=eastwest;" vertex="1" parent="eA6l3aObdcysx2nHsOpe-9">
          <mxGeometry y="228" width="300" height="112" as="geometry" />
        </mxCell>
        <mxCell id="eA6l3aObdcysx2nHsOpe-13" value="MetadataNode" style="swimlane;fontStyle=1;align=center;verticalAlign=top;childLayout=stackLayout;horizontal=1;startSize=26;horizontalStack=0;resizeParent=1;resizeParentMax=0;resizeLast=0;collapsible=1;marginBottom=0;" vertex="1" parent="1">
          <mxGeometry x="130" y="-690" width="320" height="190" as="geometry" />
        </mxCell>
        <mxCell id="eA6l3aObdcysx2nHsOpe-14" value="- mtea_doc: shared_ptr&lt;MetaDocument&gt;&#xa;- doc_node: llvm::msgpack::DocNode" style="text;strokeColor=none;fillColor=none;align=left;verticalAlign=top;spacingLeft=4;spacingRight=4;overflow=hidden;rotatable=0;points=[[0,0.5],[1,0.5]];portConstraint=eastwest;" vertex="1" parent="eA6l3aObdcysx2nHsOpe-13">
          <mxGeometry y="26" width="320" height="44" as="geometry" />
        </mxCell>
        <mxCell id="eA6l3aObdcysx2nHsOpe-15" value="" style="line;strokeWidth=1;fillColor=none;align=left;verticalAlign=middle;spacingTop=-1;spacingLeft=3;spacingRight=3;rotatable=0;labelPosition=right;points=[];portConstraint=eastwest;strokeColor=inherit;" vertex="1" parent="eA6l3aObdcysx2nHsOpe-13">
          <mxGeometry y="70" width="320" height="8" as="geometry" />
        </mxCell>
        <mxCell id="eA6l3aObdcysx2nHsOpe-16" value="+ getMetadataKind(): MetadataKind&#xa;+ getMetadataString(): string&#xa;+ lookupMetadata(char*): unique_ptr&lt;MetadataNode&gt;&#xa;+ indexListMetadata(size_t): unique_ptr&lt;MetadataNode&gt;&#xa;+ getMetadataListSize(): size_t&#xa;+ getMetadataMapSize(): size_t&#xa;+ iterateMapMetadata(): bool&#xa;" style="text;strokeColor=none;fillColor=none;align=left;verticalAlign=top;spacingLeft=4;spacingRight=4;overflow=hidden;rotatable=0;points=[[0,0.5],[1,0.5]];portConstraint=eastwest;" vertex="1" parent="eA6l3aObdcysx2nHsOpe-13">
          <mxGeometry y="78" width="320" height="112" as="geometry" />
        </mxCell>
        <mxCell id="eA6l3aObdcysx2nHsOpe-21" value="MetaDocument" style="swimlane;fontStyle=0;childLayout=stackLayout;horizontal=1;startSize=26;fillColor=none;horizontalStack=0;resizeParent=1;resizeParentMax=0;resizeLast=0;collapsible=1;marginBottom=0;" vertex="1" parent="1">
          <mxGeometry x="130" y="-990" width="230" height="100" as="geometry" />
        </mxCell>
        <mxCell id="eA6l3aObdcysx2nHsOpe-22" value="+ document: llvm::msgpack::Document&#xa;+ raw_document: string&#xa;+ raw_document_list: vector&lt;string&gt;&#xa;+ emit_integer_booleans: bool" style="text;strokeColor=none;fillColor=none;align=left;verticalAlign=top;spacingLeft=4;spacingRight=4;overflow=hidden;rotatable=0;points=[[0,0.5],[1,0.5]];portConstraint=eastwest;" vertex="1" parent="eA6l3aObdcysx2nHsOpe-21">
          <mxGeometry y="26" width="230" height="74" as="geometry" />
        </mxCell>
        <mxCell id="eA6l3aObdcysx2nHsOpe-25" value="KernelParameterDescriptor" style="swimlane;fontStyle=0;childLayout=stackLayout;horizontal=1;startSize=26;fillColor=none;horizontalStack=0;resizeParent=1;resizeParentMax=0;resizeLast=0;collapsible=1;marginBottom=0;" vertex="1" parent="1">
          <mxGeometry x="130" y="640" width="170" height="100" as="geometry" />
        </mxCell>
        <mxCell id="eA6l3aObdcysx2nHsOpe-26" value="+ name_: string&#xa;+ type_name_: string&#xa;+ size_: size_t&#xa;+ offset_: size_t" style="text;strokeColor=none;fillColor=none;align=left;verticalAlign=top;spacingLeft=4;spacingRight=4;overflow=hidden;rotatable=0;points=[[0,0.5],[1,0.5]];portConstraint=eastwest;" vertex="1" parent="eA6l3aObdcysx2nHsOpe-25">
          <mxGeometry y="26" width="170" height="74" as="geometry" />
        </mxCell>
      </root>
    </mxGraphModel>
  </diagram>
</mxfile>
